<svg width="160" height="36" viewBox="0 0 160 36" fill="none" xmlns="http://www.w3.org/2000/svg">
<g clip-path="url(#clip0_107_1698)">
<path d="M13.0449 19.3382V19.0318C18.3389 19.0624 22.5925 15.2724 22.5925 10.2003C22.5925 4.42337 18.5623 0.730408 11.2835 0.730408H0V28.9614H7.36502V19.9307C10.3496 25.4268 16.735 29.0789 23.1001 29.3751V20.6714C20.3946 21.4273 15.8772 20.8604 13.0499 19.3433L13.0449 19.3382ZM8.78117 16.8763C8.32434 16.8763 7.85229 16.8354 7.35994 16.7741V7.98864H10.8521C13.8367 7.98864 15.2122 9.49545 15.2122 12.1158C15.2122 15.0987 12.7048 16.8763 8.78117 16.8763Z" fill="white"/>
<path d="M69.8636 0.725342H59.2095V29.0329C63.6508 29.0329 66.0161 27.3014 66.4628 23.8127H66.7826V29.0329H70.087C77.7971 29.0329 84.6901 24.2827 84.6901 14.6544C84.6901 6.94668 80.3147 0.725342 69.8636 0.725342ZM69.3205 22.4643H66.8486V8.36666H69.7824C75.0054 8.36666 77.254 11.2934 77.254 14.8843C77.254 19.6345 74.8532 22.4643 69.3205 22.4643Z" fill="white"/>
<path d="M146.133 9.94495C146.133 8.69864 147.3 7.91714 150.701 7.91714C152.767 7.91714 156.472 8.43303 158.645 9.57718V1.63451C156.665 0.817253 153.843 0 150.488 0C142.834 0 138.854 3.77469 138.854 9.25028C138.854 20.605 152.792 16.2174 152.792 20.6459C152.792 22.2344 151.554 23.1896 148.072 23.1896C143.052 23.1896 139.194 20.9779 139.194 20.9779V27.9858C141.123 29.0278 144.163 29.8093 147.742 29.8093C154.361 29.8093 160 27.6078 160 20.8348C160 10.1595 146.138 14.1078 146.138 9.93984L146.133 9.94495Z" fill="white"/>
<path d="M98.8414 0.766174H91.1921V29.0329H98.8414V0.766174Z" fill="white"/>
<path d="M123.957 17.9592V17.949C123.957 21.4172 121.485 23.0619 119.099 23.0619C116.475 23.0619 114.587 20.7889 114.587 17.9694V0.725342H107.1V18.4035C107.1 26.1113 111.059 29.8349 116.51 29.8349C119.926 29.8349 123.16 27.4546 123.632 24.4257H123.957V29.0329H131.332V0.725342H123.957V17.9541V17.9592Z" fill="white"/>
<path d="M36.2312 1.16459L26.9323 28.4302C26.8206 28.7571 27.0643 29.1044 27.4094 29.1044H34.1958L40.3122 10.3587C40.4644 9.89387 41.1192 9.89387 41.2715 10.3587L47.3676 29.1044H54.0372C54.4433 29.1044 54.7275 28.706 54.5955 28.3178L45.3372 1.16459C45.256 0.924517 45.0327 0.766174 44.7789 0.766174H36.7845C36.5307 0.766174 36.3073 0.929625 36.2261 1.16459H36.2312Z" fill="white"/>
<path d="M41.2156 35.8059L46.4539 30.1005C46.8041 29.7225 46.5351 29.1044 46.0224 29.1044H35.5409C35.0282 29.1044 34.7592 29.7225 35.1094 30.1005L40.3477 35.8059C40.5812 36.0613 40.9822 36.0613 41.2156 35.8059Z" fill="white"/>
</g>
<defs>
<clipPath id="clip0_107_1698">
<rect width="160" height="36" fill="white"/>
</clipPath>
</defs>
</svg>
